<?xml version="1.0" encoding="UTF-8"?>
<svg version="1.1" xmlns="http://www.w3.org/2000/svg" width="2020" height="858">
<path d="M0 0 C666.6 0 1333.2 0 2020 0 C2020 283.14 2020 566.28 2020 858 C1353.4 858 686.8 858 0 858 C0 574.86 0 291.72 0 0 Z " fill="#FEFEFE" transform="translate(0,0)"/>
<path d="M0 0 C15.46289256 13.72331714 25.62380865 31.95994037 27.3671875 52.8046875 C27.41101562 53.60132813 27.45484375 54.39796875 27.5 55.21875 C27.56445312 56.26289063 27.62890625 57.30703125 27.6953125 58.3828125 C27.96890881 66.31710548 27.39294559 71.8921343 21.9921875 77.89453125 C14.82209538 84.61440828 7.32943607 86.87865286 -2.3972168 86.83422852 C-10.23143824 86.47205359 -17.33413285 83.65966589 -22.703125 77.82421875 C-25.63004243 73.58018848 -26.72945943 69.75106774 -27.2109375 64.6484375 C-27.32179688 63.58625 -27.43265625 62.5240625 -27.546875 61.4296875 C-27.76326757 59.2296964 -27.97432654 57.02917326 -28.1796875 54.828125 C-29.18254281 45.36937604 -31.17187496 34.01585149 -38.5 27.21875 C-49.11726279 20.49097952 -59.26900855 20.24561384 -71.35546875 22.48046875 C-105.83191139 30.57493789 -135.64536438 58.20136736 -160.84716797 81.68359375 C-162.67369018 83.38007406 -164.51071186 85.06481304 -166.34765625 86.75 C-178.69190492 98.12904217 -190.07225116 110.04685673 -200.5 123.21875 C-201.34565152 124.26098718 -202.19203769 125.30262859 -203.0390625 126.34375 C-210.76409493 135.91484833 -217.68822509 145.9840582 -224.5 156.21875 C-225.2115625 157.28416016 -225.2115625 157.28416016 -225.9375 158.37109375 C-253.73051911 200.13957986 -276.33082454 245.67790968 -289.5 294.21875 C-289.73283691 295.05486816 -289.96567383 295.89098633 -290.20556641 296.75244141 C-298.47302579 326.50777444 -304.63596843 357.59776243 -304.66796875 388.578125 C-304.67129715 389.7255719 -304.67462555 390.8730188 -304.67805481 392.05523682 C-304.68308722 394.46878665 -304.68546428 396.88234336 -304.68530273 399.29589844 C-304.68748566 402.94478079 -304.70567167 406.59335858 -304.72460938 410.2421875 C-304.79174022 438.01680239 -300.83973324 462.20671189 -284.5 485.21875 C-283.72849609 486.31703125 -283.72849609 486.31703125 -282.94140625 487.4375 C-276.01488954 496.38506833 -264.25606323 500.82976779 -253.5 503.21875 C-236.30982546 504.10291328 -220.28801411 502.4367222 -204.5 495.21875 C-203.61441406 494.82300781 -202.72882813 494.42726563 -201.81640625 494.01953125 C-181.85382714 484.14205897 -163.94868966 465.11077465 -150.47265625 447.75 C-148.63051815 445.38622675 -146.70482382 443.11817653 -144.73876953 440.85717773 C-114.86056682 406.33089801 -97.54937293 368.09360718 -89.5 323.21875 C-89.34692383 322.37618652 -89.19384766 321.53362305 -89.03613281 320.66552734 C-81.69886867 281.93556714 -81.69886867 281.93556714 -89.9375 244.41796875 C-93.11912463 239.93983209 -97.09121074 238.50401885 -102.26171875 237.45703125 C-106.60474481 236.99533748 -110.12987512 238.01326367 -114.125 239.65625 C-114.8144873 239.92920898 -115.50397461 240.20216797 -116.21435547 240.48339844 C-139.64314637 250.07840429 -158.59201269 267.16978353 -176.3125 284.78125 C-176.80064178 285.26403412 -177.28878357 285.74681824 -177.79171753 286.24423218 C-184.49279231 292.88946584 -190.61033742 299.84492526 -196.5 307.21875 C-197.4118883 308.29665371 -198.32978754 309.36955129 -199.2578125 310.43359375 C-204.76442044 316.76710156 -209.91392929 323.30790311 -214.9375 330.03125 C-215.57389404 330.88275635 -216.21028809 331.7342627 -216.8659668 332.61157227 C-219.88785111 336.66964125 -222.88510732 340.74324734 -225.84375 344.84765625 C-226.36783447 345.56655029 -226.89191895 346.28544434 -227.43188477 347.02612305 C-228.39567006 348.34966735 -229.35022603 349.68001279 -230.29272461 351.01879883 C-235.60987382 358.29237751 -242.54761246 363.51554419 -251.5 365.21875 C-260.84755231 366.23098494 -267.92890891 364.87562288 -275.3125 358.96875 C-280.01324154 353.05924635 -282.53868091 347.64938992 -282.265625 339.9453125 C-279.31012595 325.55987322 -270.143293 311.88834187 -261.5 300.21875 C-261.06574707 299.6304541 -260.63149414 299.0421582 -260.18408203 298.43603516 C-253.5210719 289.5041447 -246.20893379 281.25537492 -238.5 273.21875 C-237.71753906 272.39503906 -236.93507813 271.57132812 -236.12890625 270.72265625 C-231.48437098 265.94565652 -226.5611329 261.67950062 -221.359375 257.51953125 C-218.50366655 255.22170027 -215.72332687 252.85055501 -212.9375 250.46875 C-185.91991902 228.05211431 -154.95748828 210.28729649 -120.6875 201.96875 C-120.01823486 201.80528076 -119.34896973 201.64181152 -118.65942383 201.47338867 C-108.7278467 199.19047742 -98.7788114 199.03671491 -88.625 199.03125 C-87.43519531 199.01900391 -86.24539063 199.00675781 -85.01953125 198.99414062 C-67.21895787 198.96495936 -52.67722007 202.58345575 -39.56640625 215.05859375 C-26.18924573 229.12618836 -25.29923103 250.35860531 -25.3125 268.78125 C-25.3137085 270.5461377 -25.3137085 270.5461377 -25.31494141 272.34667969 C-25.3948968 284.0389805 -26.25902439 295.59789981 -27.5 307.21875 C-27.57476563 307.95544922 -27.64953125 308.69214844 -27.7265625 309.45117188 C-33.69598683 366.98978972 -66.80672478 422.13522098 -102.5 466.21875 C-102.91846191 466.74307617 -103.33692383 467.26740234 -103.76806641 467.80761719 C-110.8062126 476.57852587 -118.63988142 484.56684466 -126.5625 492.53125 C-127.32268936 493.2993399 -127.32268936 493.2993399 -128.09823608 494.08294678 C-144.36615649 510.48139984 -163.10982635 525.25909196 -183.5 536.21875 C-184.27005371 536.63640625 -185.04010742 537.0540625 -185.83349609 537.484375 C-212.09426161 551.48737092 -241.87011042 556.1872411 -270.78613281 547.53466797 C-286.67103041 542.47563795 -302.00904226 535.41082132 -314.5 524.21875 C-315.31597656 523.52136719 -316.13195312 522.82398438 -316.97265625 522.10546875 C-333.18421084 507.99866004 -344.15361547 491.85439906 -352.5 472.21875 C-352.83652588 471.43483887 -353.17305176 470.65092773 -353.51977539 469.84326172 C-355.95849431 463.98460489 -357.74935684 458.14566437 -359.1875 451.96875 C-359.50883911 450.61100464 -359.50883911 450.61100464 -359.83666992 449.22583008 C-361.50086163 441.88633464 -362.3606469 434.75648613 -362.5 427.21875 C-366.81304198 430.96555462 -371.08773926 434.74752783 -375.3125 438.59375 C-380.56180977 443.32451093 -385.99623945 447.78872052 -391.5 452.21875 C-392.63313697 453.14413408 -393.76593449 454.06993393 -394.8984375 454.99609375 C-421.53347644 476.67468682 -455.09984867 503.31847744 -491.5 500.21875 C-502.80789646 498.13307132 -514.62111789 492.81232603 -521.90625 483.65234375 C-528.56175627 473.48964667 -532.81634733 463.14805239 -532.80078125 450.94140625 C-532.80506638 450.17179062 -532.8093515 449.40217499 -532.81376648 448.60923767 C-532.81947536 446.98649063 -532.82003563 445.36371802 -532.81567383 443.7409668 C-532.8125479 441.31837464 -532.83589635 438.89704808 -532.86132812 436.47460938 C-532.9053844 425.74239054 -531.73210514 415.70727317 -529.5 405.21875 C-529.18591187 403.70631714 -529.18591187 403.70631714 -528.86547852 402.16333008 C-528.31893913 399.63063739 -527.73541501 397.1117436 -527.125 394.59375 C-526.80801147 393.28071899 -526.80801147 393.28071899 -526.48461914 391.94116211 C-520.35435896 367.1413702 -520.35435896 367.1413702 -513.46484375 361.57421875 C-512.79582031 361.18878906 -512.12679687 360.80335938 -511.4375 360.40625 C-510.43009766 359.80876953 -510.43009766 359.80876953 -509.40234375 359.19921875 C-502.37159321 355.57556703 -492.46170338 356.01243358 -485.0234375 358.27734375 C-477.45191892 361.81391382 -472.36595657 366.48369132 -468.0625 373.59375 C-466.34739046 381.5975945 -467.8680161 388.06769412 -470.41796875 395.7265625 C-472.29519461 401.78519036 -473.35789699 407.98786849 -474.5 414.21875 C-474.70753906 415.18039062 -474.91507813 416.14203125 -475.12890625 417.1328125 C-476.44902507 423.68724858 -476.70553505 430.115657 -476.75 436.78125 C-476.75926514 437.66321045 -476.76853027 438.5451709 -476.77807617 439.45385742 C-476.77396729 440.28506104 -476.7698584 441.11626465 -476.765625 441.97265625 C-476.76336914 442.71845947 -476.76111328 443.4642627 -476.75878906 444.23266602 C-476.60752081 446.53688934 -476.60752081 446.53688934 -474.5 449.21875 C-457.48393424 448.89151797 -439.72697095 431.02810113 -427.5 420.21875 C-426.78416748 419.59121826 -426.06833496 418.96368652 -425.33081055 418.31713867 C-418.80680118 412.53295866 -412.59958737 406.47270185 -406.44897461 400.2980957 C-404.80760204 398.65133596 -403.16091181 397.01002905 -401.51367188 395.36914062 C-395.96563935 389.82497229 -390.56512284 384.21268713 -385.5 378.21875 C-384.52732798 377.1004424 -383.55340096 375.98322493 -382.578125 374.8671875 C-375.62951218 366.84332372 -368.97100281 358.6321636 -362.5 350.21875 C-361.98155518 349.58759277 -361.46311035 348.95643555 -360.92895508 348.30615234 C-359.40343968 346.07769571 -358.88438561 344.49123163 -358.359375 341.859375 C-358.18019531 341.0048877 -358.00101563 340.15040039 -357.81640625 339.27001953 C-357.53603516 337.88339111 -357.53603516 337.88339111 -357.25 336.46875 C-349.57344006 301.01118488 -337.56258687 265.64257012 -323.5 232.21875 C-323.06510254 231.18363281 -322.63020508 230.14851562 -322.18212891 229.08203125 C-302.56442908 182.77234815 -278.06866158 140.18681123 -247.5 100.21875 C-247.04270508 99.6196582 -246.58541016 99.02056641 -246.11425781 98.40332031 C-232.60538154 80.77078418 -217.72269036 64.25361316 -202.02050781 48.55395508 C-200.49513287 47.02637584 -198.97799328 45.49091418 -197.4609375 43.95507812 C-191.13539926 37.59303169 -184.56464418 31.76671022 -177.5 26.21875 C-176.79101562 25.65051514 -176.08203125 25.08228027 -175.3515625 24.49682617 C-159.87476986 12.13412632 -143.501286 1.51718153 -125.5 -6.78125 C-123.76363281 -7.59529297 -123.76363281 -7.59529297 -121.9921875 -8.42578125 C-113.67067778 -12.16951284 -105.19866433 -14.84437674 -96.41821289 -17.24853516 C-94.58417988 -17.75787206 -92.76044902 -18.30387825 -90.9375 -18.8515625 C-59.60367031 -27.32593917 -24.81844088 -21.15208029 0 0 Z " fill="#010101" transform="translate(1144.5,108.78125)"/>
<path d="M0 0 C1.06114014 0.00418945 2.12228027 0.00837891 3.21557617 0.01269531 C10.9771613 0.12448402 17.84826412 0.8487643 25.25 3.3125 C26.20777344 3.61414063 27.16554688 3.91578125 28.15234375 4.2265625 C50.15692172 11.65197564 65.39383639 28.54483024 76.0078125 48.640625 C83.44097046 64.10458176 86.64068547 79.52870961 86.5 96.625 C86.49250732 97.84268066 86.48501465 99.06036133 86.47729492 100.31494141 C86.26242361 118.72185061 84.4201353 136.09514988 79.85400391 153.94091797 C79.34081263 155.9559301 78.86022142 157.97920025 78.38671875 160.00390625 C67.69289387 203.74215684 46.5853313 246.08390557 23.25 284.3125 C22.63624512 285.32038574 22.02249023 286.32827148 21.39013672 287.36669922 C10.47456845 305.22163108 -1.17105888 322.51133257 -13.42382812 339.47119141 C-14.8780113 341.49023586 -16.32201028 343.51635577 -17.765625 345.54296875 C-28.98906181 361.25475124 -40.89526503 376.38453534 -53.12353516 391.32275391 C-55.3643818 394.06410788 -57.59540294 396.81338559 -59.82641602 399.56274414 C-61.98443922 402.22194502 -64.14490787 404.87915248 -66.30566406 407.53613281 C-67.59764999 409.125127 -68.88872944 410.71485812 -70.1796875 412.3046875 C-71.63634126 414.09310582 -73.09854233 415.87702101 -74.56640625 417.65625 C-76.02821705 419.43448138 -77.47351339 421.22641165 -78.90234375 423.03125 C-85.42390349 431.06428955 -92.62769074 438.37851862 -99.9375 445.6875 C-100.45869415 446.20960052 -100.97988831 446.73170105 -101.51687622 447.2696228 C-107.41643044 453.16801823 -113.40652682 458.88900685 -119.75 464.3125 C-120.91922043 465.35652201 -122.08591938 466.40337518 -123.25 467.453125 C-149.69680163 491.07008887 -178.94073808 505.76969333 -215.0625 504.65234375 C-232.11125226 503.68647694 -248.44376294 494.76564983 -260.75 483.3125 C-261.23952148 482.86922363 -261.72904297 482.42594727 -262.23339844 481.96923828 C-272.73348188 472.40464103 -279.95985697 461.81962144 -285.75 448.875 C-286.04108643 448.22499023 -286.33217285 447.57498047 -286.63208008 446.90527344 C-288.43144383 442.65748778 -289.28108976 438.85506792 -289.75 434.3125 C-290.41 434.3125 -291.07 434.3125 -291.75 434.3125 C-292.04197266 435.46298828 -292.04197266 435.46298828 -292.33984375 436.63671875 C-294.35251054 441.88303302 -297.30885216 446.39143455 -300.3125 451.125 C-300.97435303 452.17453857 -301.63620605 453.22407715 -302.31811523 454.30541992 C-319.81249584 481.85502969 -338.89496547 508.21576353 -359.75 533.3125 C-360.17249023 533.82135742 -360.59498047 534.33021484 -361.03027344 534.85449219 C-366.9332592 541.94756128 -373.00029657 548.84974463 -379.2734375 555.6171875 C-381.27346352 557.79387197 -383.21198306 559.99772882 -385.125 562.25 C-388.38689785 565.98463666 -391.79400365 569.57063842 -395.25 573.125 C-396.05123291 573.97082642 -396.05123291 573.97082642 -396.86865234 574.83374023 C-402.24601538 580.28904796 -407.67565846 582.73977628 -415.4375 582.875 C-423.74792519 582.68029355 -430.51326899 580.0711563 -436.7578125 574.53125 C-443.07082329 567.57778884 -443.21649072 560.50130713 -442.87347412 551.48376465 C-442.48184786 544.59710498 -441.49761413 537.76695105 -440.5625 530.9375 C-440.3320878 529.21147251 -440.10203245 527.48539736 -439.87231445 525.75927734 C-439.29047808 521.41876135 -438.69325558 517.08054167 -438.08850098 512.74316406 C-437.77335281 510.48018884 -437.4618984 508.21673753 -437.15136719 505.953125 C-434.15061517 484.20897661 -430.08105699 462.71048881 -425.73339844 441.19970703 C-424.97349482 437.43620376 -424.23046711 433.66975633 -423.49719238 429.90098572 C-420.02481164 412.08494581 -415.94225515 394.44255925 -411.625 376.8125 C-411.3710144 375.77391846 -411.11702881 374.73533691 -410.85534668 373.6652832 C-407.70397124 360.81615256 -404.36564332 348.03858063 -400.75 335.3125 C-400.25453075 333.53534502 -399.75961146 331.75803646 -399.265625 329.98046875 C-381.42548906 266.52965168 -358.73801238 204.43733013 -331.75 144.3125 C-331.14502686 142.96019287 -331.14502686 142.96019287 -330.52783203 141.58056641 C-326.01655478 131.62185783 -322.18999567 124.30684766 -311.67456055 119.93432617 C-303.86659797 117.41157079 -293.21416906 118.43055395 -285.87109375 121.91015625 C-280.50346331 125.45892113 -276.72822001 130.19209162 -274.75 136.3125 C-274.44921875 138.890625 -274.44921875 138.890625 -274.4375 141.5625 C-274.42074219 142.43390625 -274.40398437 143.3053125 -274.38671875 144.203125 C-275.42284204 153.07144908 -279.84810934 161.24939179 -283.4375 169.3125 C-302.06202253 211.64010418 -317.40939013 255.37689198 -331.75 299.3125 C-332.08112793 300.32135254 -332.41225586 301.33020508 -332.75341797 302.36962891 C-336.02149018 312.35039867 -338.92159725 322.39762291 -341.63989258 332.54199219 C-342.93643198 337.37521008 -344.29030423 342.1691759 -345.8125 346.9375 C-347.75844274 353.10501275 -349.29522254 359.35202041 -350.83105469 365.63110352 C-351.96185915 370.23258809 -353.15256514 374.80115922 -354.47509766 379.35107422 C-358.34385414 392.68107891 -361.23519262 406.2589413 -364.27137756 419.79690552 C-365.26099061 424.19564653 -366.28609373 428.58449511 -367.33488464 432.96948242 C-369.11141275 440.40531248 -370.69323054 447.83965317 -372 455.375 C-372.17273438 456.34759766 -372.34546875 457.32019531 -372.5234375 458.32226562 C-372.93652736 460.65163345 -373.34542509 462.98164117 -373.75 465.3125 C-354.36259137 439.01939936 -338.38551052 410.46828081 -323.75 381.3125 C-323.02151855 379.86955566 -323.02151855 379.86955566 -322.27832031 378.39746094 C-309.33596193 352.61237044 -299.0773415 325.58503021 -289.75 298.3125 C-289.52056702 297.64269104 -289.29113403 296.97288208 -289.05474854 296.28277588 C-281.94968343 275.71515426 -281.94968343 275.71515426 -275.9375 254.8125 C-273.98794187 247.42546248 -271.84124502 241.33771639 -265.53125 236.671875 C-257.30406776 231.9334346 -249.57779197 232.53818175 -240.5625 234.5 C-233.10234142 236.56097766 -227.05787759 239.68499602 -222.75 246.3125 C-212.77491541 265.11031283 -224.17305873 299.37146417 -228.14868164 319.09814453 C-241.46869737 381.8680019 -241.46869737 381.8680019 -223.75 441.3125 C-222.13688911 443.36313959 -220.44445172 445.32757084 -218.75 447.3125 C-218.75 447.9725 -218.75 448.6325 -218.75 449.3125 C-218.21375 449.580625 -217.6775 449.84875 -217.125 450.125 C-215.38205788 450.99647106 -213.67766043 451.9461552 -212 452.9375 C-204.88110523 455.9493401 -198.87208184 454.15362967 -191.875 451.6171875 C-170.16814846 442.55457698 -152.75196675 423.50198392 -136.3762207 407.12402344 C-134.55894012 405.30894443 -132.73376167 403.50206093 -130.90820312 401.6953125 C-124.80094712 395.61669993 -119.00728607 389.4926858 -113.67260742 382.71484375 C-111.62359952 380.15455959 -109.46290054 377.73183722 -107.25 375.3125 C-103.36491427 371.04361898 -99.68932154 366.64179471 -96.0625 362.15234375 C-93.68530904 359.23305688 -91.25056836 356.36853981 -88.8125 353.5 C-83.90372324 347.61551877 -79.45577939 341.47910465 -75.07275391 335.19726562 C-73.72203465 333.27265273 -72.35366798 331.36175252 -70.98046875 329.453125 C-50.3191718 300.65051402 -31.20627122 270.23175685 -15.72509766 238.30712891 C-14.77604277 236.36577227 -13.80229031 234.43858423 -12.82421875 232.51171875 C-0.98781263 208.79122712 6.38619639 182.57946218 14.25 157.3125 C14.78633057 155.59305176 14.78633057 155.59305176 15.33349609 153.83886719 C22.61964064 130.14543116 27.36654234 105.58980697 27.5 80.75 C27.520625 79.78642578 27.54125 78.82285156 27.5625 77.83007812 C27.61467664 68.15783281 25.57968449 58.89720814 19.25 51.3125 C14.90140773 47.91847677 10.3467441 47.70844618 4.9921875 47.80859375 C0.21055733 48.45246671 -4.16778911 49.83614254 -8.75 51.3125 C-17.66173932 54.17290489 -26.15498868 56.70685909 -35.125 52.625 C-36.35491389 51.88908879 -37.56528916 51.11916828 -38.75 50.3125 C-40.3278125 49.260625 -40.3278125 49.260625 -41.9375 48.1875 C-46.8041513 43.7741806 -49.29872557 38.30516198 -50.26953125 31.8671875 C-50.59462587 24.86631275 -50.00613462 19.69357698 -45.55859375 14.13671875 C-38.83028887 7.35028597 -29.76609052 4.83357107 -20.75 2.3125 C-20.0688916 2.12196045 -19.3877832 1.9314209 -18.68603516 1.73510742 C-12.45330087 0.16537657 -6.40727486 -0.03448316 0 0 Z " fill="#010101" transform="translate(566.75,150.6875)"/>
<path d="M0 0 C4.63272061 4.13841047 9.12815083 9.82214615 9.91015625 16.10546875 C10.03346705 25.53874479 7.96980221 32.82227437 1.39880371 39.79840088 C-4.24837032 44.77476756 -12.00439004 46.21386712 -19.20703125 47.484375 C-20.12621841 47.65678711 -21.04540558 47.82919922 -21.9924469 48.00683594 C-23.95404966 48.37463839 -25.9164858 48.7380199 -27.87966919 49.09729004 C-33.05539046 50.04703217 -38.22339869 51.03645315 -43.390625 52.03125 C-44.42126572 52.22962463 -45.45190643 52.42799927 -46.51377869 52.63238525 C-55.56790709 54.39531025 -64.5376988 56.4304296 -73.48828125 58.65625 C-74.16202789 58.82361664 -74.83577454 58.99098328 -75.52993774 59.16342163 C-78.71010194 59.95577392 -81.88826366 60.75577199 -85.06542969 61.56005859 C-89.73859653 62.73683833 -94.42383508 63.85894211 -99.11328125 64.96875 C-99.90976074 65.15856445 -100.70624023 65.34837891 -101.52685547 65.54394531 C-106.59237721 66.74777294 -111.66401862 67.92341389 -116.73828125 69.08984375 C-133.98177423 73.04979986 -133.98177423 73.04979986 -151.06835938 77.63061523 C-156.71249138 79.24617474 -162.39752671 80.63034737 -168.11328125 81.96875 C-187.25233533 85.81580887 -187.25233533 85.81580887 -205.42578125 92.40625 C-206.24091422 94.6171644 -206.24091422 94.6171644 -206.87109375 97.36328125 C-207.13921875 98.43747314 -207.40734375 99.51166504 -207.68359375 100.6184082 C-207.96976563 101.806521 -208.2559375 102.99463379 -208.55078125 104.21875 C-208.855 105.45906982 -209.15921875 106.69938965 -209.47265625 107.97729492 C-212.85256329 121.84810336 -215.89902643 135.79554737 -218.95527649 149.74040222 C-220.02902432 154.63022908 -221.12513057 159.51442308 -222.2421875 164.39453125 C-229.7274156 197.10158795 -236.10273155 229.94259531 -241.99157715 262.97167969 C-242.84469883 267.75510921 -243.70196286 272.53779824 -244.55883789 277.32055664 C-244.9652613 279.60035552 -245.3681815 281.88078212 -245.76733398 284.16186523 C-246.62043725 289.02371139 -247.50503662 293.86619322 -248.546875 298.69140625 C-250.99086355 310.29842616 -251.92960868 321.71061752 -252.48828125 333.53125 C-253.88540349 362.72099548 -258.05110247 390.91548464 -263.171875 419.671875 C-267.93500309 446.22986503 -267.93500309 446.22986503 -271.48828125 472.96875 C-271.60860214 474.04825424 -271.60860214 474.04825424 -271.73135376 475.14956665 C-273.51465258 491.30360606 -274.52595943 507.5094378 -275.47485352 523.73071289 C-275.53208588 524.70535492 -275.58931824 525.67999695 -275.64828491 526.68417358 C-275.75389616 528.50264576 -275.85706367 530.3212624 -275.95718384 532.14004517 C-276.23171555 536.93677136 -276.65350221 541.68780827 -277.21131897 546.45973206 C-277.45486213 548.67019594 -277.58043624 550.86303641 -277.63671875 553.0859375 C-277.99942688 564.57541505 -278.65787276 576.03712847 -279.55718994 587.49639893 C-279.67697918 589.04913717 -279.7909655 590.60233507 -279.89886475 592.15594482 C-281.13291316 609.72729955 -281.13291316 609.72729955 -287.25 616.39453125 C-295.03307568 621.9258995 -302.80454528 624.67371821 -312.42578125 623.40625 C-319.87508832 621.65836789 -326.66165507 618.57096562 -331.42578125 612.40625 C-334.77790964 606.32452851 -336.00521723 601.22068268 -335.8515625 594.32421875 C-335.84737808 593.05919525 -335.84737808 593.05919525 -335.84310913 591.76861572 C-335.82852473 589.04305048 -335.78445587 586.31894805 -335.73828125 583.59375 C-335.71925612 581.69084823 -335.7014444 579.78793397 -335.68481445 577.88500977 C-335.63731224 573.22121751 -335.56262296 568.55842855 -335.4732666 563.89526367 C-335.43094589 561.67696209 -335.39365255 559.45865695 -335.35839844 557.24023438 C-334.80383719 526.20135866 -330.90360306 495.81839881 -326.40673828 465.15063477 C-324.47989626 451.98263188 -322.66301179 438.82579926 -321.23828125 425.59375 C-319.87217343 412.94628963 -318.19996013 400.36983744 -316.35742188 387.78320312 C-314.48766459 374.99403444 -312.78729471 362.18559352 -311.12524414 349.36791992 C-310.97856293 348.23929031 -310.97856293 348.23929031 -310.82891846 347.08786011 C-310.63719581 345.61126471 -310.44630501 344.13456104 -310.25628662 342.65774536 C-309.66795191 338.12274592 -308.99807167 333.60573483 -308.30078125 329.0859375 C-307.3756065 322.64851342 -307.07907476 316.34247924 -307.11328125 309.84375 C-307.1174707 308.72750244 -307.12166016 307.61125488 -307.12597656 306.46118164 C-307.26690251 295.92996566 -308.43682122 285.73950231 -310.42578125 275.40625 C-310.57031738 274.65021484 -310.71485352 273.89417969 -310.86376953 273.11523438 C-315.5457499 249.49275093 -325.03548137 224.88903389 -345.66552734 210.87158203 C-371.88920283 194.13041109 -401.06330041 187.09786701 -431.24154663 181.79122925 C-433.45256623 181.40152905 -435.66251742 181.00618874 -437.87231445 180.60961914 C-445.20217594 179.29835908 -452.53513347 178.04971799 -459.89624023 176.92407227 C-500.10905712 170.75301133 -500.10905712 170.75301133 -509.01953125 159.42578125 C-513.84617516 152.4941843 -514.49890248 145.6641734 -513.42578125 137.40625 C-511.00726767 130.78489728 -505.42929198 125.44697058 -499.20581055 122.2746582 C-496.59546378 121.19148183 -493.96623709 120.22083343 -491.30078125 119.28125 C-490.2845166 118.91217529 -489.26825195 118.54310059 -488.22119141 118.1628418 C-466.77082567 110.48850355 -445.03965684 103.38962983 -422.99609375 97.62890625 C-418.77934929 96.52260209 -414.63490293 95.24886 -410.48828125 93.90625 C-403.06354923 91.51126835 -395.53837856 89.57112221 -387.98242188 87.63671875 C-382.27963925 86.17061115 -376.62224702 84.61679515 -370.98828125 82.90625 C-362.10042111 80.21912136 -353.09473937 78.03257387 -344.08203125 75.80859375 C-335.55301257 73.70306259 -327.07605222 71.41754135 -318.609375 69.07421875 C-300.17119617 63.98346253 -281.64250047 59.20691961 -262.98828125 54.96875 C-262.27961914 54.80487793 -261.57095703 54.64100586 -260.84082031 54.47216797 C-257.30909877 53.69015639 -254.0443919 53.23194313 -250.42578125 53.40625 C-250.35101562 52.7771875 -250.27625 52.148125 -250.19921875 51.5 C-248.78394114 42.28682029 -244.4130866 36.41241282 -237.1875 30.66015625 C-230.40383178 25.83186911 -223.60369426 25.34483978 -215.42578125 26.40625 C-209.1918985 28.65044779 -205.85865394 32.93510915 -202.42578125 38.40625 C-191.80556181 36.87758205 -181.53844821 34.27423394 -171.17773438 31.55322266 C-167.40715023 30.56326433 -163.63575608 29.57647512 -159.86328125 28.59375 C-158.87041107 28.33501099 -158.87041107 28.33501099 -157.85748291 28.07104492 C-146.47107583 25.11264516 -135.03429203 22.45256175 -123.54907227 19.90869141 C-115.93126947 18.21627445 -108.35764846 16.41395211 -100.80078125 14.46875 C-86.70820509 10.86375729 -72.47903365 7.8884915 -58.25106812 4.87461853 C-53.29680727 3.82022423 -48.35928132 2.71017222 -43.42578125 1.5625 C-9.82535715 -6.1822472 -9.82535715 -6.1822472 0 0 Z " fill="#010101" transform="translate(1532.42578125,119.59375)"/>
<path d="M0 0 C5.38588482 4.80287667 9.46016036 9.66423531 10.37109375 16.98046875 C10.57352331 26.75662575 8.51961357 33.72476141 1.6875 40.875 C-7.85978455 48.38646652 -23.53068816 48.8555803 -35.12719727 50.94287109 C-46.79176439 53.07410408 -58.29626932 55.7742914 -69.82525635 58.53514099 C-74.8840675 59.74343694 -79.95160799 60.91017815 -85.0234375 62.0625 C-102.89636332 66.12855592 -120.7191755 70.35948322 -138.5 74.8125 C-139.42194153 75.0432019 -140.34388306 75.27390381 -141.29376221 75.51159668 C-152.22137221 78.25017057 -163.12114328 81.07340449 -174 84 C-178.7266199 85.25981644 -183.45620526 86.50786854 -188.1875 87.75 C-189.37408203 88.06582031 -190.56066406 88.38164062 -191.78320312 88.70703125 C-192.92080078 89.00480469 -194.05839844 89.30257812 -195.23046875 89.609375 C-196.24520264 89.87717773 -197.25993652 90.14498047 -198.30541992 90.42089844 C-201 91 -201 91 -205 91 C-205.11085938 91.7528125 -205.22171875 92.505625 -205.3359375 93.28125 C-206.24969732 98.39830497 -207.44349463 103.43895309 -208.625 108.5 C-209.02259521 110.21546021 -209.02259521 110.21546021 -209.42822266 111.96557617 C-210.83025056 118.00737628 -212.24533748 124.04597349 -213.671875 130.08203125 C-217.99865533 148.42427943 -222.0553434 166.81444072 -225.98388672 185.24560547 C-226.81635476 189.14799283 -227.65898903 193.0481022 -228.5045166 196.94767761 C-233.31520655 219.16389888 -237.57025532 241.45266459 -241.53240967 263.83520508 C-242.63266454 270.02302197 -243.79526447 276.19665708 -244.98828125 282.3671875 C-248.58456516 301.12198436 -251.07963372 319.4105317 -251.84667969 338.50390625 C-252.01578967 342.36004467 -252.23168948 346.21053831 -252.4765625 350.0625 C-252.58991943 351.87427734 -252.58991943 351.87427734 -252.70556641 353.72265625 C-252.96010748 356.55595587 -253.37336321 359.2289165 -254 362 C-255.05832031 362.02578125 -256.11664062 362.0515625 -257.20703125 362.078125 C-267.18446326 362.41488291 -276.99353775 363.388417 -286.875 364.8125 C-287.9781958 364.96557617 -289.0813916 365.11865234 -290.21801758 365.27636719 C-298.07851264 366.46033557 -305.46673572 368.47630243 -313 371 C-312.58160901 364.34305802 -311.8729235 357.77583508 -310.80859375 351.19140625 C-307.77913322 332.30363455 -306.04303858 314.18942965 -307 295 C-307.04012207 294.16919922 -307.08024414 293.33839844 -307.12158203 292.48242188 C-308.53139973 268.53112783 -317.45165078 234.89678388 -336 218 C-348.23180614 207.52512601 -363.31437576 200.76587683 -378.25 195.125 C-379.66671997 194.58951538 -379.66671997 194.58951538 -381.11206055 194.04321289 C-395.79212322 188.69319607 -410.78092041 185.77189308 -426.12060547 183.07275391 C-429.3355273 182.50694696 -432.54871995 181.93208509 -435.76171875 181.35546875 C-447.71176242 179.22252939 -459.67555137 177.20840149 -471.67282104 175.35803223 C-498.57313007 171.15958716 -498.57313007 171.15958716 -507.9375 161.1875 C-512.13392296 154.70211906 -514.1744181 147.72713727 -513 140 C-511.11711929 133.24180315 -507.89995371 128.73520482 -502 125 C-492.20903832 120.2635104 -481.93029042 116.74499363 -471.64233398 113.26782227 C-469.19861494 112.44125951 -466.75834476 111.60508994 -464.31835938 110.76757812 C-455.21178861 107.658691 -446.06766651 104.75743649 -436.81933594 102.09936523 C-432.89147687 100.96876249 -428.97705799 99.80071997 -425.0625 98.625 C-416.60780436 96.11452155 -408.0866729 93.85627737 -399.56542969 91.58422852 C-393.61980829 89.99346863 -387.70152786 88.35062024 -381.8125 86.5625 C-373.35406182 84.00854646 -364.79243926 81.8573835 -356.23294067 79.67266846 C-346.54192228 77.19744108 -336.88575136 74.6218149 -327.25 71.9375 C-307.78247934 66.53474125 -288.29486051 61.40586324 -268.5625 57.0625 C-267.50789078 56.8288826 -267.50789078 56.8288826 -266.43197632 56.59054565 C-264.43620818 56.15022027 -262.43915896 55.71637798 -260.44140625 55.28515625 C-259.29357666 55.03644775 -258.14574707 54.78773926 -256.96313477 54.53149414 C-254 54 -254 54 -250 54 C-249.938125 53.030625 -249.87625 52.06125 -249.8125 51.0625 C-248.61374005 42.93392229 -243.34950458 35.97141738 -237 31 C-230.04679506 26.30901543 -222.1676929 25.73011135 -214 27 C-208.39373035 29.52238943 -204.99252663 33.7630784 -202 39 C-195.1250186 38.09681617 -188.52462825 36.67236887 -181.875 34.75 C-174.59017573 32.65238172 -167.26912265 30.85799278 -159.875 29.1875 C-149.89982407 26.93220428 -139.9753249 24.51175511 -130.0625 22 C-118.98477086 19.19681481 -107.88372134 16.57898845 -96.7175293 14.14624023 C-89.41035135 12.55071807 -82.13934565 10.84212117 -74.875 9.0625 C-64.82814091 6.61292109 -54.74074214 4.39296497 -44.625 2.25 C-43.57430328 2.02680588 -43.57430328 2.02680588 -42.50238037 1.79910278 C-9.29715025 -5.2399133 -9.29715025 -5.2399133 0 0 Z " fill="#010101" transform="translate(1899,135)"/>
<path d="M0 0 C4.82536539 3.85200842 8.9954466 9.28860632 9.7578125 15.578125 C10.12094956 20.57125958 9.58238532 24.44218057 8.2578125 29.265625 C6.72843186 35.42663706 6.45399987 41.30156185 6.4453125 47.640625 C6.44015625 48.55739014 6.435 49.47415527 6.4296875 50.41870117 C6.47477491 54.75876708 6.5657198 57.74209912 8.7578125 61.578125 C11.84953102 62.11917574 13.96688302 62.08099992 16.65625 60.37109375 C31.26940267 48.0394412 40.80447203 30.23983862 49.02807617 13.32202148 C52.79372463 5.76410176 56.65542051 0.07173582 63.9453125 -4.359375 C74.45513193 -7.28834107 85.63318987 -5.50008342 95.1328125 -0.234375 C100.11577318 3.13193725 102.88433315 7.95768696 104.7578125 13.578125 C105.18320696 22.91056383 104.54400066 32.21524565 103.8203125 41.515625 C103.17105189 50.28651515 102.61976736 59.03852589 102.3203125 67.828125 C101.96597833 77.6100571 101.15211481 87.33368128 100.2578125 97.078125 C100.19191925 97.79939575 100.126026 98.5206665 100.05813599 99.26379395 C99.43270098 106.05900304 98.7630894 112.82594324 97.7578125 119.578125 C98.20882324 119.24192139 98.65983398 118.90571777 99.12451172 118.55932617 C148.85665603 81.65178496 206.79610181 58.24279489 269.2578125 58.203125 C270.09192657 58.20113098 270.92604065 58.19913696 271.78543091 58.19708252 C289.45079174 58.20187916 306.35393806 59.16967539 319.6875 72.203125 C325.39208685 78.74725482 326.44627404 85.03733717 326.13671875 93.625 C325.32185821 99.97587187 321.23590525 103.31165051 316.63671875 107.28125 C312.56758046 110.08988599 309.02957102 110.83821846 304.1328125 110.765625 C303.19179687 110.75917969 302.25078125 110.75273438 301.28125 110.74609375 C298.48494034 110.61278852 295.76121495 110.37457371 292.98046875 110.08203125 C284.94062265 109.32778467 276.88921494 109.33408476 268.8203125 109.328125 C267.99700439 109.32745026 267.17369629 109.32677551 266.32543945 109.32608032 C253.87891455 109.34226625 241.95200537 109.91281521 229.7578125 112.578125 C228.97825195 112.7337793 228.19869141 112.88943359 227.39550781 113.04980469 C201.29177637 118.27890083 176.52058982 127.73806291 152.7578125 139.578125 C151.50726074 140.19518311 151.50726074 140.19518311 150.23144531 140.82470703 C129.99093125 150.88585534 111.09505948 163.88402837 95.7578125 180.578125 C94.99339844 181.31160156 94.22898437 182.04507813 93.44140625 182.80078125 C84.94466777 192.17379479 85.14875715 205.57575985 83.7578125 217.578125 C83.38844655 220.48236453 83.00715597 223.38483851 82.62451172 226.28735352 C82.37882786 228.15713525 82.1370026 230.02742781 81.89892578 231.89819336 C80.56008568 242.37978385 78.91381675 252.81110971 77.27392578 263.24902344 C76.75297308 266.60934086 76.25077717 269.97198053 75.75390625 273.3359375 C73.95254649 285.47062411 71.98514949 297.5077007 69.23583984 309.46679688 C68.77679691 311.49427559 68.35263425 313.52643832 67.93359375 315.5625 C63.38529423 336.06071867 54.27065207 354.38662747 39.7578125 369.578125 C39.20609375 370.20460938 38.654375 370.83109375 38.0859375 371.4765625 C29.1813463 381.21871425 14.47154653 389.57730145 1.20703125 390.81640625 C-9.35176412 391.10016454 -22.61320716 389.37186644 -31.28515625 382.85546875 C-36.03468638 377.32857042 -38.59667793 370.29183339 -41.2421875 363.578125 C-41.67660156 362.48242188 -42.11101562 361.38671875 -42.55859375 360.2578125 C-48.7383493 343.15516799 -49.14466539 323.27208233 -45.2421875 305.578125 C-45.01619873 304.53736816 -45.01619873 304.53736816 -44.78564453 303.47558594 C-42.03265929 291.12549846 -37.84219909 279.90591427 -32.2421875 268.578125 C-31.85369629 267.78873535 -31.46520508 266.9993457 -31.06494141 266.18603516 C-25.55085001 255.0977472 -19.43469541 244.65500042 -12.2421875 234.578125 C-11.71077148 233.83030762 -11.17935547 233.08249023 -10.63183594 232.31201172 C-1.5962554 219.66168294 8.07074304 207.83566313 18.5078125 196.328125 C19.57128906 195.1215625 19.57128906 195.1215625 20.65625 193.890625 C22.7578125 191.578125 22.7578125 191.578125 24.984375 189.515625 C32.51114264 181.85200704 32.49220559 172.41800632 33.44848633 162.23706055 C33.73609339 159.76482017 34.16963229 157.40287253 34.69921875 154.97265625 C36.28483745 147.48977846 36.97221893 139.85988086 37.8203125 132.265625 C38.08026716 129.95885927 38.34147204 127.65225184 38.60508728 125.34590149 C38.76767306 123.92150974 38.92808787 122.49686788 39.08595276 121.07194519 C39.48779779 117.53137879 39.99574878 114.05962801 40.7578125 110.578125 C39.89800781 111.09761719 39.03820313 111.61710938 38.15234375 112.15234375 C20.70087487 122.51430881 3.65738812 127.64405894 -16.81640625 123.9296875 C-19.48169877 123.01920801 -21.79077686 121.96139177 -24.2421875 120.578125 C-25.16902344 120.08054687 -26.09585937 119.58296875 -27.05078125 119.0703125 C-39.57217857 111.76474826 -46.66596754 101.16358327 -50.9921875 87.453125 C-53.44051659 78.14180193 -54.57508695 69.54380533 -54.4921875 59.890625 C-54.48469482 58.74013672 -54.47720215 57.58964844 -54.46948242 56.40429688 C-54.28047268 41.42712257 -51.68401812 27.84153328 -47.2421875 13.578125 C-46.93410156 12.54945313 -46.62601563 11.52078125 -46.30859375 10.4609375 C-44.15610398 4.16610075 -40.92227163 0.10369446 -35.2421875 -3.421875 C-23.17859183 -8.94116714 -11.08273714 -7.02807721 0 0 Z " fill="#010101" transform="translate(1401.2421875,443.421875)"/>
<path d="M0 0 C-0.3507042 6.51826076 -0.94903115 12.93827803 -1.94018555 19.38671875 C-5.95608696 45.55196234 -8.00344062 71.96202625 -9.5 98.375 C-10.44873876 115.02592566 -11.44264842 131.67046981 -12.69140625 148.30206299 C-12.85395312 150.49688913 -13.01048255 152.69217018 -13.16064453 154.88787842 C-13.37062841 157.9397498 -13.60237403 160.98922282 -13.83984375 164.0390625 C-13.89716171 164.93264465 -13.95447968 165.82622681 -14.01353455 166.74688721 C-14.56841029 173.3926633 -16.24152132 179.10750616 -20.9296875 184.0234375 C-21.57164063 184.46945312 -22.21359375 184.91546875 -22.875 185.375 C-23.83019531 186.06722656 -23.83019531 186.06722656 -24.8046875 186.7734375 C-32.18694197 190.89804231 -40.76133482 191.19824291 -49 190 C-57.19457538 187.31928005 -62.38477335 183.69948547 -66.59570312 176.13256836 C-68.85248144 170.69570794 -68.38825645 164.9368992 -68.328125 159.1484375 C-68.32625183 157.89858063 -68.32437866 156.64872375 -68.32244873 155.36099243 C-68.31573428 152.71300657 -68.30350693 150.0657948 -68.28125 147.41796875 C-68.2478924 143.43749505 -68.24030883 139.45717617 -68.234375 135.4765625 C-68.1737965 115.21130839 -67.60847289 95.13344524 -65.25 75 C-65.07629051 73.48112484 -64.90262633 71.96224449 -64.72900391 70.44335938 C-63.47702161 59.60777587 -62.12452016 48.78393798 -60.70007324 37.96972656 C-60.48459228 36.33262147 -60.27110838 34.69525219 -60.05969238 33.05761719 C-59.76359669 30.7768959 -59.45762338 28.497729 -59.1484375 26.21875 C-58.97489746 24.91873047 -58.80135742 23.61871094 -58.62255859 22.27929688 C-57.69283049 17.38199966 -57.69283049 17.38199966 -56 15 C-54.13085938 13.89086914 -54.13085938 13.89086914 -51.84375 13.03515625 C-50.99498291 12.71240723 -50.14621582 12.3896582 -49.27172852 12.05712891 C-48.35705811 11.72890137 -47.4423877 11.40067383 -46.5 11.0625 C-45.55890381 10.71622559 -44.61780762 10.36995117 -43.64819336 10.01318359 C-29.76009442 4.99631669 -14.92999148 0 0 0 Z " fill="#010101" transform="translate(1633,568)"/>
<path d="M0 0 C-0.61179751 7.52431489 -2.27436574 14.52116271 -4.1875 21.8125 C-7.85512343 36.13117426 -11.00171978 50.5284117 -14 65 C-14.35239746 66.69769531 -14.35239746 66.69769531 -14.71191406 68.4296875 C-14.94362305 69.54601562 -15.17533203 70.66234375 -15.4140625 71.8125 C-15.6394873 72.89756836 -15.86491211 73.98263672 -16.09716797 75.10058594 C-16.51771782 77.12941657 -16.93617573 79.15868252 -17.35205078 81.18847656 C-18.44595625 86.4958397 -19.64513347 91.75297145 -21 97 C-21.67482422 96.48953125 -21.67482422 96.48953125 -22.36328125 95.96875 C-23.7575974 94.918123 -25.15510018 93.87171973 -26.5546875 92.828125 C-28.17156268 91.61934292 -29.78112509 90.40071059 -31.3828125 89.171875 C-56.99898181 69.90099533 -87.41954607 57.99490214 -117.16186523 46.7010498 C-119.97246605 45.62910928 -122.77511197 44.53691208 -125.578125 43.4453125 C-127.46850723 42.71291474 -129.35911291 41.98109334 -131.25 41.25 C-132.49910156 40.76490967 -132.49910156 40.76490967 -133.7734375 40.27001953 C-137.4966766 38.84935139 -141.03822926 37.60218915 -145 37 C-141.27198157 34.90092035 -137.27830806 33.79437535 -133.19140625 32.62109375 C-132.05730064 32.29207314 -132.05730064 32.29207314 -130.90028381 31.95640564 C-123.61360383 29.85871132 -116.28631666 27.92978863 -108.9375 26.0625 C-107.48411662 25.69113646 -106.0307481 25.31971474 -104.57739258 24.94824219 C-99.38690894 23.62431108 -94.19369279 22.31127781 -89 21 C-87.92161865 20.72766541 -86.8432373 20.45533081 -85.73217773 20.17474365 C-78.45114952 18.33700267 -71.16872524 16.50488665 -63.88504028 14.67770386 C-61.45541048 14.06811565 -59.02594168 13.45788533 -56.59664917 12.84695435 C-43.77951057 9.62588462 -30.95840123 6.4615238 -18.05326843 3.60980225 C-14.37734992 2.79351179 -10.74652161 1.95254504 -7.14135742 0.86230469 C-4 0 -4 0 0 0 Z " fill="#FCFCFC" transform="translate(1268,227)"/>
<path d="M0 0 C-0.73480276 7.5175975 -2.43195733 14.77423588 -4.125 22.125 C-4.43829844 23.50017352 -4.75128094 24.87541904 -5.06396484 26.25073242 C-6.62634795 33.10554318 -8.22006821 39.95242522 -9.84375 46.79296875 C-10.43778933 49.29941061 -11.03154336 51.80592011 -11.625 54.3125 C-12.05969604 56.14530518 -12.05969604 56.14530518 -12.50317383 58.01513672 C-14.75991742 67.66090594 -16.68701472 77.35037339 -18.40283203 87.10668945 C-18.58571777 88.11820068 -18.76860352 89.12971191 -18.95703125 90.171875 C-19.18869995 91.5036377 -19.18869995 91.5036377 -19.42504883 92.86230469 C-20 95 -20 95 -22 97 C-22.50144531 96.48953125 -23.00289062 95.9790625 -23.51953125 95.453125 C-54.69077539 65.50324137 -103.72101803 50.21100367 -144 37 C-143.67 36.34 -143.34 35.68 -143 35 C-140.87144577 34.32105002 -138.70773439 33.7516409 -136.53515625 33.23046875 C-135.86898788 33.06758865 -135.20281952 32.90470856 -134.51646423 32.7368927 C-132.36694421 32.21264123 -130.21496578 31.69950951 -128.0625 31.1875 C-125.28152574 30.51851812 -122.5017643 29.84465948 -119.72265625 29.16796875 C-119.00385284 28.99333603 -118.28504944 28.81870331 -117.54446411 28.63877869 C-112.63407428 27.43386434 -107.76583751 26.1151839 -102.90234375 24.734375 C-90.58307262 21.25255592 -78.1472784 18.21146817 -65.7265625 15.11645508 C-62.22815773 14.24468071 -58.73082622 13.36868555 -55.23376465 12.49154091 C-41.56357801 9.06439313 -27.8831854 5.68967851 -14.15625 2.49609375 C-13.06654907 2.24094498 -11.97684814 1.9857962 -10.85412598 1.72291565 C-9.85876831 1.49394089 -8.86341064 1.26496613 -7.83789062 1.02905273 C-6.97119751 0.82900131 -6.10450439 0.62894989 -5.21154785 0.4228363 C-3 0 -3 0 0 0 Z " fill="#FCFCFC" transform="translate(1635,243)"/>
<path d="M0 0 C5.92101191 4.58400922 9.59920743 9.85372701 10.609375 17.34375 C10.91243488 25.46903113 10.2087664 32.22896662 5.12890625 38.78125 C-0.5985705 44.4128694 -7.21497721 47.88869243 -15.30859375 48.15625 C-23.06940803 47.90144898 -28.60307036 45.7190249 -34.33203125 40.4609375 C-40.38410459 33.85588284 -41.29840409 26.83497404 -41.2109375 18.17578125 C-40.52825144 11.35676764 -37.53612293 6.00162134 -32.55859375 1.34375 C-22.88944008 -5.99648924 -10.23749342 -6.66826294 0 0 Z " fill="#020202" transform="translate(1797.87109375,524.21875)"/>
<path d="M0 0 C6.45268806 3.70715988 11.0909361 8.66705937 13.390625 15.859375 C14.76428235 23.02293391 14.96334506 30.87250819 11.140625 37.26171875 C6.62683265 43.28452086 1.83233346 47.54551826 -5.50390625 49.7265625 C-6.83421875 49.88125 -6.83421875 49.88125 -8.19140625 50.0390625 C-8.8153125 50.12671875 -9.43921875 50.214375 -10.08203125 50.3046875 C-17.37803755 50.88206929 -23.22243174 48.06366267 -29.19140625 44.0390625 C-31.63460702 41.58173918 -33.49504675 39.05345672 -35.19140625 36.0390625 C-35.56136719 35.45769531 -35.93132813 34.87632812 -36.3125 34.27734375 C-38.70041114 28.19613003 -38.22773287 19.40249757 -36.31640625 13.19921875 C-33.00108214 6.81940098 -28.11202412 2.75707301 -22.00390625 -0.8359375 C-14.80760505 -2.95943622 -6.9505203 -3.09233128 0 0 Z " fill="#020202" transform="translate(672.19140625,385.9609375)"/>
<path d="M0 0 C1.25063551 4.23211326 0.60841026 7.84692238 -0.125 12.125 C-0.26115723 12.94178223 -0.39731445 13.75856445 -0.53759766 14.60009766 C-1.01285659 17.40230742 -1.50564381 20.20109858 -2 23 C-2.18369141 24.06412109 -2.36738281 25.12824219 -2.55664062 26.22460938 C-7.59935837 55.18228953 -7.59935837 55.18228953 -12 62 C-14.15234375 62.80859375 -14.15234375 62.80859375 -16 63 C-21.3020427 53.27958838 -19.3131164 43.34676079 -16.41210938 33.15185547 C-12.75450072 21.31914455 -7.45167285 9.90495246 0 0 Z " fill="#F3F3F3" transform="translate(1425,704)"/>
</svg>
